<svg width="452" height="204" viewBox="0 0 452 204" fill="none" xmlns="http://www.w3.org/2000/svg">
<path d="M54.12 51.746H48.906V28.646C48.906 25.742 48.07 23.256 46.398 21.188C44.726 19.12 42.526 18.086 39.798 18.086C37.026 18.086 34.628 18.988 32.604 20.792C30.624 22.596 29.634 24.84 29.634 27.524V51.746H24.354V27.524C24.354 24.84 23.342 22.596 21.318 20.792C19.338 18.988 16.962 18.086 14.19 18.086C11.462 18.086 9.284 19.12 7.656 21.188C6.028 23.212 5.214 25.698 5.214 28.646V51.746H0V29.24C0 24.532 1.342 20.748 4.026 17.888C6.534 15.204 9.834 13.686 13.926 13.334C19.382 12.894 23.738 15.226 26.994 20.33C30.25 15.226 34.606 12.894 40.062 13.334C44.154 13.686 47.476 15.204 50.028 17.888C52.756 20.748 54.12 24.532 54.12 29.24V51.746ZM64.5047 9.638H59.5547V0.859999H64.5047V9.638ZM64.5047 51.746H59.5547V14.126H64.5047V51.746ZM123.455 25.94C123.455 33.288 120.837 39.602 115.601 44.882C110.409 50.118 104.161 52.736 96.8565 52.736C89.5965 52.736 83.3045 50.206 77.9805 45.146C72.7005 40.086 70.0605 33.992 70.0605 26.864C70.0605 19.56 72.6345 13.29 77.7825 8.054C82.9745 2.818 89.2225 0.199999 96.5265 0.199999C103.831 0.199999 110.145 2.708 115.469 7.724C120.793 12.696 123.455 18.768 123.455 25.94ZM118.571 26.27C118.483 20.374 116.283 15.38 111.971 11.288C107.703 7.196 102.599 5.15 96.6585 5.15C90.8065 5.15 85.7685 7.24 81.5445 11.42C77.3205 15.6 75.2085 20.616 75.2085 26.468C75.2085 32.276 77.3205 37.27 81.5445 41.45C85.7685 45.63 90.8285 47.742 96.7245 47.786C102.709 47.83 107.857 45.74 112.169 41.516C116.481 37.292 118.615 32.21 118.571 26.27ZM142.054 52.538C132.902 52.538 128.326 48.644 128.326 40.856V0.926002H133.408V14.06H142.054V18.746H133.408V39.998C133.408 45.586 136.29 48.38 142.054 48.38V52.538ZM182.406 32.936C182.406 38.348 180.426 43.034 176.466 46.994C172.55 50.91 167.886 52.78 162.474 52.604C157.238 52.472 152.794 50.492 149.142 46.664C145.534 42.836 143.73 38.282 143.73 33.002C143.73 27.502 145.688 22.794 149.604 18.878C153.52 14.918 158.184 13.026 163.596 13.202C168.832 13.378 173.276 15.402 176.928 19.274C180.58 23.102 182.406 27.656 182.406 32.936ZM177.39 32.54C177.258 28.58 175.828 25.192 173.1 22.376C170.416 19.56 167.16 18.152 163.332 18.152C159.328 18.108 155.918 19.516 153.102 22.376C150.286 25.192 148.856 28.602 148.812 32.606C148.724 36.566 150.022 40.042 152.706 43.034C155.39 45.982 158.668 47.522 162.54 47.654C166.676 47.874 170.196 46.444 173.1 43.364C176.048 40.284 177.478 36.676 177.39 32.54Z" transform="translate(46 38) scale(2)" fill="white"/>
<path d="M208 96H12C5.4 96 0 90.6 0 84V12C0 5.4 5.4 0 12 0H208C214.6 0 220 5.4 220 12V84C220 90.6 214.6 96 208 96Z" transform="translate(6 6) scale(2)" stroke="white" stroke-width="5" stroke-miterlimit="10"/>
</svg>
